<svg xmlns="http://www.w3.org/2000/svg" width="73.084" height="58.81" viewBox="0 0 73.084 58.81">
  <g id="Grupo_26" data-name="Grupo 26" transform="translate(0 -14.388)">
    <g id="Grupo_25" data-name="Grupo 25" transform="translate(0 0.159)">
      <path id="Trazado_25" data-name="Trazado 25" d="M209.992,211.841a17.883,17.883,0,0,0-6.928,1.383,1.427,1.427,0,0,0,1.1,2.634,15.117,15.117,0,1,1-8.144,8.148,1.427,1.427,0,1,0-2.635-1.1,17.989,17.989,0,1,0,16.606-11.067Z" transform="translate(-164.598 -181.625)" fill="#fff"/>
      <path id="Trazado_26" data-name="Trazado 26" d="M247.711,279.251a11.7,11.7,0,1,0-11.7-11.7A11.718,11.718,0,0,0,247.711,279.251Zm0-20.555a8.85,8.85,0,1,1-8.85,8.85A8.86,8.86,0,0,1,247.711,258.7Z" transform="translate(-202.318 -219.344)" fill="#fff"/>
      <path id="Trazado_27" data-name="Trazado 27" d="M65.845,108.977H61.5l-4.984-8.434a1.427,1.427,0,0,0-1.229-.7H35.5a1.427,1.427,0,0,0-1.229.7l-4.984,8.434H21.126v-1.713a5.139,5.139,0,1,0-10.278,0v1.713H7.239A7.248,7.248,0,0,0,0,116.216v35.2a7.248,7.248,0,0,0,7.239,7.24H65.845a7.248,7.248,0,0,0,7.239-7.24v-35.2a7.247,7.247,0,0,0-7.239-7.24ZM36.311,102.7H54.476l3.711,6.281H32.6ZM13.7,107.264a2.284,2.284,0,0,1,4.568,0v1.713H13.7ZM70.23,151.412a4.389,4.389,0,0,1-4.384,4.385H7.239a4.39,4.39,0,0,1-4.385-4.385v-35.2a4.389,4.389,0,0,1,4.385-4.385H65.845a4.389,4.389,0,0,1,4.384,4.385v35.2Z" transform="translate(0 -85.612)" fill="#fff"/>
      <path id="Trazado_28" data-name="Trazado 28" d="M309.433,301.2a2.787,2.787,0,0,1,2.783,2.783,1.427,1.427,0,0,0,2.855,0,5.645,5.645,0,0,0-5.638-5.638,1.427,1.427,0,1,0,0,2.855Z" transform="translate(-264.04 -255.778)" fill="#fff"/>
      <path id="Trazado_32" data-name="Trazado 32" d="M84.85,245.841H77.427a1.427,1.427,0,0,0,0,2.855H84.85a1.427,1.427,0,0,0,0-2.855Z" transform="translate(-65.152 -210.772)" fill="#fff"/>
      <path id="Trazado_33" data-name="Trazado 33" d="M227.387,248.695a1.428,1.428,0,1,0-1.009-.418A1.438,1.438,0,0,0,227.387,248.695Z" transform="translate(-193.706 -210.771)" fill="#fff"/>
    </g>
  </g>
</svg>
