<svg xmlns="http://www.w3.org/2000/svg" width="70.12" height="70.689" viewBox="0 0 70.12 70.689">
  <g id="Grupo_28" data-name="Grupo 28" transform="translate(291.001 81)">
    <path id="Trazado_34" data-name="Trazado 34" d="M-223.11-35.133c1.051-5.28,2.649-17.427-2.122-27.464a3.457,3.457,0,0,0-3.058-2.2,31.786,31.786,0,0,0-7.014-8.549,1.036,1.036,0,0,0-1.46.111,1.035,1.035,0,0,0,.111,1.46,29.711,29.711,0,0,1,6.176,7.333c-.149.071-1.743,1.08-2.528,1.58A26.653,26.653,0,0,0-255.94-75.947a26.667,26.667,0,0,0-22.934,13.082c-.785-.5-2.379-1.509-2.529-1.581A29.635,29.635,0,0,1-255.94-78.929a29.484,29.484,0,0,1,16.1,4.765,1.036,1.036,0,0,0,1.432-.3,1.036,1.036,0,0,0-.3-1.432A31.554,31.554,0,0,0-255.94-81a31.709,31.709,0,0,0-27.652,16.2c-1.34-.13-2.574,1.189-3.056,2.2-4.77,10.037-3.173,22.183-2.122,27.464a8.34,8.34,0,0,0-1.322,9.454l5.521,10.826a8.335,8.335,0,0,0,7.43,4.542c5.308,0,6.687-4.073,6.813-5.019l1.409-.718a5.078,5.078,0,0,0,2.54-2.976,5.08,5.08,0,0,0-.308-3.9l-6.369-12.489a5.118,5.118,0,0,0-6.876-2.231l-1.409.718a6.643,6.643,0,0,0-5.6.321c-2.437-13.358.64-21.967,2.166-25.1a1.91,1.91,0,0,1,2.691-.754c.826.532,1.829,1.172,2.981,1.9a1.861,1.861,0,0,1,.746,2.236,33.821,33.821,0,0,0-1.367,16.879,1.036,1.036,0,0,0,1.184.862,1.035,1.035,0,0,0,.862-1.183A31.721,31.721,0,0,1-276.418-57.6a3.974,3.974,0,0,0-.78-4.029,24.6,24.6,0,0,1,21.257-12.244,24.587,24.587,0,0,1,21.258,12.243,3.975,3.975,0,0,0-.781,4.03c1.218,3.288,2.874,10.137.521,19.446a5.109,5.109,0,0,0-3.88,2.743l-6.369,12.489a5.117,5.117,0,0,0,2.231,6.876l1.409.718c.126.946,1.329,5.019,6.813,5.019a8.335,8.335,0,0,0,7.43-4.542l5.521-10.825A8.34,8.34,0,0,0-223.11-35.133Zm-51.793.659,6.369,12.489c1.4,2.845-2.013,4.441-2.013,4.441-.107-.336-8.923-17.623-9.133-17.907C-279.68-35.451-276.626-37.371-274.9-34.474Zm-10.619-.556a3.127,3.127,0,0,1,4.592,1.486l8.105,15.892a3.287,3.287,0,0,1-1.492,4.588,6.261,6.261,0,0,1-8.41-2.732l-5.521-10.825A6.279,6.279,0,0,1-285.522-35.03Zm55.728-27.432a1.791,1.791,0,0,1,2.691.754c1.5,3.149,4.6,11.744,2.166,25.1a6.368,6.368,0,0,0-5.6-.321s-2-.985-2.307-1.073c2.361-9.675.611-16.849-.676-20.321a1.861,1.861,0,0,1,.746-2.236C-231.623-61.289-230.624-61.937-229.794-62.462Zm6.161,35.842-5.521,10.826a6.262,6.262,0,0,1-5.582,3.413,6.2,6.2,0,0,1-2.825-.681,3.288,3.288,0,0,1-1.493-4.59l.51-1A1.035,1.035,0,0,0-239-20.045a1.035,1.035,0,0,0-1.393.452s-.837,1.712-.944,2.049a3.112,3.112,0,0,1-2.013-4.441l6.369-12.488c1.614-2.989,4.777-.978,4.777-.978-.21.284-6.318,12.19-6.318,12.19a1.035,1.035,0,0,0,.452,1.393,1.035,1.035,0,0,0,1.392-.452l5.724-11.223a3.287,3.287,0,0,1,4.587-1.488A6.261,6.261,0,0,1-223.633-26.619Z" fill="#fff"/>
  </g>
</svg>
