<svg xmlns="http://www.w3.org/2000/svg" width="21.729" height="17.45" viewBox="0 0 21.729 17.45"><defs><style>.a{fill:#1fa5e1;}</style></defs><path class="a" d="M7.8,10.879.384,3.464a1.3,1.3,0,0,1,0-1.848L1.616.384a1.3,1.3,0,0,1,1.848,0L8.72,5.64,13.975.384a1.3,1.3,0,0,1,1.848,0l1.243,1.227a1.3,1.3,0,0,1,0,1.848L9.652,10.873A1.3,1.3,0,0,1,7.8,10.879ZM9.652,21.346l7.414-7.414a1.3,1.3,0,0,0,0-1.848l-1.232-1.232a1.3,1.3,0,0,0-1.848,0L8.725,16.1,3.47,10.846a1.3,1.3,0,0,0-1.848,0L.384,12.078a1.3,1.3,0,0,0,0,1.848L7.8,21.34A1.3,1.3,0,0,0,9.652,21.346Z" transform="translate(0 17.45) rotate(-90)"/></svg>