<svg xmlns="http://www.w3.org/2000/svg" width="18.726" height="36.113" viewBox="0 0 18.726 36.113"><defs><style>.a{fill:#1fa5e1;}</style></defs><path class="a" d="M17.352,20.326l.889-6.535-5.975.01L12.22,9.569a4.7,4.7,0,0,1,.158-1.3,3.1,3.1,0,0,1,.567-1.131,2.743,2.743,0,0,1,1.072-.8,4.287,4.287,0,0,1,1.674-.308l2.721-.013L18.355.442S18.2.416,17.931.376,17.278.284,16.821.232s-.987-.1-1.551-.141S14.111.031,13.522.035a9.252,9.252,0,0,0-3.334.6A6.876,6.876,0,0,0,7.651,2.345,7.464,7.464,0,0,0,6.048,5.1a11.42,11.42,0,0,0-.534,3.752l.054,4.958-5.415.009L.225,20.31l5.414,0,.172,15.7,6.692.049-.168-15.746Z"/></svg>