<svg xmlns="http://www.w3.org/2000/svg" width="1614.125" height="906.152" viewBox="0 0 1614.125 906.152"><defs><style>.a,.b,.c,.d,.e,.f,.g,.h,.i,.j{fill:none;}.a,.c{stroke:#ff80bd;}.a,.b,.c,.d,.e,.f,.g,.h,.j{stroke-linecap:round;}.a,.b{stroke-miterlimit:10;}.a,.b,.d,.f,.g{stroke-width:2px;}.b,.d{stroke:#ffaf33;}.c,.d,.e,.f,.g,.h,.i,.j{stroke-linejoin:round;}.e,.j{stroke:#fff;}.f,.i{stroke:#79beff;}.g{stroke:#c7ed72;}.h{stroke:#71ff3d;}.i{stroke-width:0.75px;}.j{stroke-width:0.25px;}</style></defs><g transform="translate(0.125 1)"><g transform="translate(-174.553 -111.37)"><g transform="translate(652.12 325.799)"><line class="a" x1="12.604" y2="12.607"/><line class="a" x1="12.604" y1="12.607"/></g><g transform="translate(1014.958 970.832)"><line class="b" x1="12.603" y2="12.607" transform="translate(0)"/><line class="b" x1="12.603" y1="12.607" transform="translate(0)"/></g><g transform="translate(531.174 898.186)"><line class="c" x1="17.484" y2="9.535" transform="translate(0 3.976)"/><line class="c" x1="9.531" y1="17.487" transform="translate(3.976)"/></g><path class="d" d="M234.608,303.8l25.313,6.035-17.881,18.907Z" transform="translate(160.54 397.931)"/><path class="e" d="M376.053,116.725l16.431,3.917-11.607,12.273Z" transform="translate(481.609 12.798)"/><rect class="f" width="19.825" height="19.825" transform="matrix(0.707, -0.707, 0.707, 0.707, 697.385, 811.315)"/><path class="g" d="M313.277,129.527a18.152,18.152,0,1,1-18.154-18.157A18.15,18.15,0,0,1,313.277,129.527Z" transform="translate(244.794 0)"/><circle class="h" cx="5.085" cy="5.085" r="5.085" transform="translate(947.159 824.006)"/><circle class="c" cx="5.085" cy="5.085" r="5.085" transform="translate(466.824 589.543)"/><path class="i" d="M492.665,216.962a30.028,30.028,0,0,1,0-60.056" transform="translate(1295.888 -1.163)"/><path class="j" d="M174.553,444.448a93.779,93.779,0,1,1,187.559,0" transform="translate(0 571.949)"/></g></g></svg>