<svg xmlns="http://www.w3.org/2000/svg" width="262.77" height="45.826" viewBox="0 0 262.77 45.826"><defs><style>.a{fill:#fff;fill-rule:evenodd;}</style></defs><g transform="translate(407.118 -470.343)"><path class="a" d="M-221.718,496.691a4,4,0,0,0-4.016,3.995,4.008,4.008,0,0,0,4.016,4.014,4,4,0,0,0,3.994-4.014,3.993,3.993,0,0,0-3.994-3.995Zm0,7.527a3.519,3.519,0,0,1-3.523-3.532,3.514,3.514,0,0,1,3.523-3.513,3.512,3.512,0,0,1,3.511,3.513,3.516,3.516,0,0,1-3.511,3.532Z" transform="translate(73.376 10.659)"/><path class="a" d="M-220.391,499.129a1.1,1.1,0,0,0-.5-.965,2.078,2.078,0,0,0-1.091-.219h-1.949v4.476h.545v-2.065h1.006l1.28,2.065h.65l-1.353-2.065h0c.8-.021,1.416-.347,1.416-1.228Zm-2.16.8h-.839v-1.584h1.28c.555,0,1.163.084,1.163.777,0,.912-.975.808-1.6.808Z" transform="translate(74.104 11.166)"/><path class="a" d="M-229.448,488.172l8.188-8.743h0a2.775,2.775,0,0,0,.711-1.476c0-.642-.552-.9-2.288-.9H-224.9v-5.518h22.364v5.518h-2.94c-3.393,0-4.025.513-8.759,6.482h0l-12.955,13.989v8.537h0c0,2.184,1.105,2.952,4.261,2.952h4.892v5.326h-31.323v-5.326h4.892c3.155,0,4.26-.768,4.26-2.952h0v-8.537l-15.257-16.877h0c-2.523-2.951-2.174-3.594-9.194-3.594h0v-5.518h28.328v5.518h-2.018c-2.051,0-2.92.385-2.92,1.156,0,.642.632,1.156,1.027,1.667h0l7.719,8.413h0a1.875,1.875,0,0,0,3.077-.118Z" transform="translate(57.629 0.482)"/><path class="a" d="M-361.877,471.921h6.833v15.4h-6.311c-.559-3.079-2.486-4.277-4.245-5.892-3.17-2.913-10.034-5.339-15.809-5.339-7.451,0-13.741,2.312-13.741,5.712,0,9.434,42.621,1.926,42.621,19.767,0,9.305-9.129,14.5-25.525,14.5-5.676,0-14.266-1.761-19.332-4.452-1.59-.919-2.264.867-2.56,3.1h-7.007V498.811h6.337c1.4,4.045,3.323,4.878,5.094,6.483,3.073,2.823,10.387,4.878,17.095,4.812,10.114-.1,13.593-2.309,13.593-5.518s-3.44-3.979-14.524-5.712h0l-9.409-1.539h0c-10.62-1.605-18.352-3.979-18.352-12.451,0-8.792,9.781-14.311,25.245-14.311,6.517,0,11.971.869,17.2,3.829,1.452.941,2.812,1.053,2.794-2.482Z" transform="translate(0 0.093)"/><path class="a" d="M-265.686,497.225l.135-17.117h0c0-2.246-1.167-3.016-4.506-3.016h-3.924v-5.327h24.96v5.327h-3.254c-3.341,0-4.51.77-4.51,3.016h0v34.463l-9.77-.076-31.634-29.959v21.755h0c0,2.184,1.17,3.017,4.507,3.017h4.341v5.263h-25.918v-5.263h4.294c3.339,0,4.507-.833,4.507-3.017h0V480.108h0c0-2.246-1.169-3.016-4.507-3.016h-4.294v-5.327h22.412l27.161,25.46Z" transform="translate(37.16 0.575)"/><path class="a" d="M-330.171,470.343c-19.892,0-32.342,8.794-32.342,22.911,0,13.864,12.277,22.591,31.735,22.591,20.666,0,32.688-8.6,32.688-23.3,0-13.219-12.972-22.206-32.081-22.206Zm-.452,39.918c-11.01,0-17.34-6.354-17.34-17.328,0-10.717,6.6-17.071,17.89-17.071,10.826,0,17.155,6.482,17.155,17.52,0,10.783-6.42,16.878-17.7,16.878Z" transform="translate(18.044 0)"/></g></svg>